{"title":"Lance Lopez Salvation From Sundown (rock)(CD mp3@320 DVD avi)[ro","uid":6118296,"size":960532241,"categoryP":"audio","categoryS":"music","magnet":"?xt=urn:btih:290c2e4cfc10d93ba0c8f504dd6a5a94a9f39dac&amp;dn=Lance+Lopez+Salvation+From+Sundown+%28rock%29%28CD+mp3%40320+DVD+avi%29%5Bro&amp;tr=udp%3A%2F%2Ftracker.openbittorrent.com%3A80&amp;tr=udp%3A%2F%2Fopen.demonii.com%3A1337&amp;tr=udp%3A%2F%2Ftracker.coppersurfer.tk%3A6969&amp;tr=udp%3A%2F%2Fexodus.desync.com%3A6969","seeders":2,"leechers":1,"uploader":"rogercc1","files":14,"time":1295649816,"description":"LANCE LOPEZ SALVATION FROM SUNDOWN\nCD plus bonus DVD\nLabel MIG \nRelease Date Nov 09, 2010\nFormat:Mp3@320 /avi\n[\n\nBorn in Shreveport, Louisiana, Lance Lopez moved to Dallas, Texas when he was 12 years old, then to New Orleans, Louisiana 2 years later. \nHet has been a professional musician since the age of 14 when he began playing in local bars and around the area of New Orleans, Louisiana. \nDuring his high school career in New Orleans, and later in southwest Florida, Lance served in a variety of bands that played clubs at least 3 nights a week. \nAt age 17, Lance and his family moved to Dallas, Texas.. Returning to Texas Lance was hired immediately by the soul legend Johnnie Taylor. \n\n\nPersonell \nLance Lopez - Guitar, Vocals \nTony Valdez - Bass \nCody Norman - Drums \nRick Steph - Piano, Organ \n\nCD Tracklist\n1 Love of Mine 4: 21\n2 My Good Thang 5:09 \n3 Heart Fixin Business  4.08\n4 One Half Hour 4:17 \n5 So Alone 4:30 \n6 Salvation From Sundown 4:42 \n7 Neverlove 4:41 \n8 It Shoulda Been Me 4:18 \n9 Stubbs 3:20 \n10 Locked Outta Love 4:04 \n11 Why 5:28 \n12 Romeo 5:20 \n\nRecording information: Ardent Studios, Memphis, TN; Luminous Sound, Dallas, TX.\n\nDVD: \n\nWDR Rockpalast-concert from the 25th of July 2009. \n Lance Lopez appears with Toni Valdez (bass) and Al Pahanish Jr. (drums) .\n\n1. Stubbs \n2. Love Of Mine \n3. My Good Thang \n4. Heart Fixin' Business \n5. Neverlove \n6. El Paso Sugar \n7. One Half Hour \n8. Friend Of Mine \n9. Salvation From Sundown \n10. Locked Out Of Love \n11. Stones In My Pathway\n\n\n\nGeneral\nComplete name  :\n C:\\Users\\roger\\Videos\\Lance Lopez Salvation from Sundown.avi\nFormat                           : AVI\nFile size                        : 790 MiB\nDuration                         : 1h 16mn\nOverall bit rate                 : 1 452 Kbps\nWriting library                  : Boilsoft AVI tool build 1/release\n\nVideo\nID                               : 0\nFormat                           : MPEG-4 Visual\nFormat profile                   : Advanced Simple@L5\nFormat settings, BVOP            : Yes\nFormat settings, QPel            : No\nFormat settings, GMC             : No warppoints\nFormat settings, Matrix          : Default (H.263)\nCodec ID                         : XVID\nDuration                         : 1h 16mn\nBit rate                         : 1 249 Kbps\nWidth x Height           : 640 pixels x 480 pixels\nDisplay aspect ratio             : 4:3\nFrame rate                       : 29.970 fps\nColor space                      : YUV\nChroma subsampling               : 4:2:0\nBit depth                        : 8 bits\nScan type                        : Progressive\nBits/(Pixel*Frame)               : 0.136\nStream size                      : 680 MiB (86%)\nWriting library                  : XviD 1.1.2 (UTC 2006-11-01)\n\nAudio\nID                               : 1\nFormat                        : MPEG Audio Version 1 Layer 3\nMode                             : Joint stereo\nCodec ID                         : 55\nCodec ID/Hint                    : MP3\nDuration                         : 1h 15mn\nBit rate mode                    : Constant\nBit rate                         : 192 Kbps\nChannel(s)                       : 2 channels\nSampling rate                    : 44.1 KHz\nStream size                      : 104 MiB (13%)\nAlignment                        : Split accross interleaves\nInterleave, duration             : 34 ms (1.01 video frame)\nInterleave, preload duration     : 500 ms\nWriting library                  : LAME3.97\n\n","torrent":{"xt":"urn:btih:290c2e4cfc10d93ba0c8f504dd6a5a94a9f39dac","amp;dn":"Lance+Lopez+Salvation+From+Sundown+%28rock%29%28CD+mp3%40320+DVD+avi%29%5Bro","amp;tr":["udp%3A%2F%2Ftracker.openbittorrent.com%3A80","udp%3A%2F%2Fopen.demonii.com%3A1337","udp%3A%2F%2Ftracker.coppersurfer.tk%3A6969","udp%3A%2F%2Fexodus.desync.com%3A6969"],"infoHash":"290c2e4cfc10d93ba0c8f504dd6a5a94a9f39dac","infoHashBuffer":{"type":"Buffer","data":[41,12,46,76,252,16,217,59,160,200,245,4,221,106,90,148,169,243,157,172]},"announce":[],"urlList":[]}}